<svg width="54" height="54" viewBox="0 0 54 54" fill="none" xmlns="http://www.w3.org/2000/svg">
<path d="M41.5295 1.09237C42.122 0.59857 43.1532 1.58989 43.1158 2.47632C43.0815 3.30122 40.8466 8.76644 39.7232 8.66894C37.6005 8.48598 40.8648 1.64614 41.5295 1.09237Z" fill="#FF8253"/>
<path d="M8.43342 11.9688C8.43218 11.9678 8.43041 11.9682 8.42967 11.9696L7.76945 13.1694C6.58608 13.4396 1.41114 13.5789 2.3153 11.4302C2.93899 9.94224 8.32555 11.4694 8.43342 11.9688Z" fill="#FF8253"/>
<path d="M9.93387 1.32683C10.8745 1.18007 13.2051 5.86142 13.4488 6.76112C13.7727 7.96004 13.3152 8.40564 12.1468 7.92487C11.3329 5.76497 7.62192 3.50249 9.93387 1.32683Z" fill="#FF8253"/>
<path d="M45.4651 11.5632C51.9621 8.4986 55.1517 11.9376 46.8644 13.9025C46.08 14.0817 45.2042 11.9662 45.4651 11.5632Z" fill="#FF8253"/>
<g filter="url(#filter0_g_376_4734)">
<path d="M14.5663 14.7999C17.7562 6.23781 33.4804 5.40036 36.5946 14.3575C43.4437 13.843 49.2511 20.5693 46.6444 27.2599C53.2514 32.4297 48.1161 43.2954 39.9569 42.1261C38.0087 47.302 30.2953 46.5203 26.3778 44.2286C23.052 46.4279 17.0566 46.6338 14.1561 43.6661C13.8123 43.3154 13.2118 42.1392 12.8993 41.9855C12.4651 41.7755 10.7695 41.7939 9.95981 41.5714C3.62452 39.8237 1.18097 31.0536 6.83872 27.0538C6.57662 26.0267 5.84874 25.1569 5.57602 24.132C4.21295 18.9855 9.43899 13.6324 14.5663 14.7999ZM28.2147 31.7452C31.0734 30.6362 29.3112 26.413 26.3719 27.0685C23.4759 27.7163 24.3837 33.2315 28.2147 31.7452ZM20.6522 20.9894C19.5302 20.4159 16.8403 18.9935 17.4901 21.4298L21.2752 23.6144L17.326 24.4865V26.1085C17.8599 26.4483 23.5742 24.7825 23.8993 24.2511C24.6471 23.0244 21.5499 21.4495 20.6522 20.9894ZM34.1893 20.0538C33.4071 20.1106 30.26 22.1377 29.7479 22.7618C28.8797 23.8185 30.1339 24.464 31.0692 24.6173C31.5491 24.6951 34.4386 24.9274 34.745 24.8351C35.311 24.6628 35.5583 24.0536 34.9735 23.6398C34.0865 23.0119 33.1322 23.308 32.1698 23.3038C32.7402 22.4867 34.5064 21.8501 35.037 21.2472H35.0409C35.6488 20.5583 35.0196 19.9951 34.1893 20.0538Z" fill="#FF8253"/>
</g>
<defs>
<filter id="filter0_g_376_4734" x="3.26602" y="7.60024" width="46.7995" height="38.7998" filterUnits="userSpaceOnUse" color-interpolation-filters="sRGB">
<feFlood flood-opacity="0" result="BackgroundImageFix"/>
<feBlend mode="normal" in="SourceGraphic" in2="BackgroundImageFix" result="shape"/>
<feTurbulence type="fractalNoise" baseFrequency="0.25 0.25" numOctaves="3" seed="6821" />
<feDisplacementMap in="shape" scale="0.80000001192092896" xChannelSelector="R" yChannelSelector="G" result="displacedImage" width="100%" height="100%" />
<feMerge result="effect1_texture_376_4734">
<feMergeNode in="displacedImage"/>
</feMerge>
</filter>
</defs>
</svg>
