<svg width="54" height="54" viewBox="0 0 54 54" fill="none" xmlns="http://www.w3.org/2000/svg">
<g filter="url(#filter0_g_376_4729)">
<path d="M18.068 15.322C21.2819 7.03785 34.3822 6.7269 37.2906 15.3865H37.2926C41.9236 15.7381 45.5479 20.0867 45.5435 24.6413C45.5435 25.4468 44.9762 26.9213 45.1051 27.6355C45.1212 27.7159 45.9375 28.437 46.1598 28.8054C49.3167 34.0417 45.7992 41.7288 39.2535 41.2751C37.3211 46.0856 31.5174 45.3557 27.7642 43.1892C25.2839 45.5728 20.6904 45.4649 17.9088 43.6697C17.3129 43.2855 16.3285 42.0467 15.9439 41.9353C14.6994 41.5771 13.4677 41.928 11.8717 41.2116C7.21021 39.121 5.51847 31.0629 9.78475 27.8825C7.82845 24.2419 9.06864 19.4633 12.2848 16.945C14.184 15.4583 15.7102 15.3481 18.068 15.322ZM30.7701 30.2585C30.3652 29.4043 29.1672 31.2912 28.1724 31.1902C27.1777 31.0883 26.0784 29.2889 25.732 30.6745C25.4826 32.9252 30.7356 33.3616 30.7701 30.2585ZM21.1764 27.154C20.5985 26.9287 19.194 25.0612 18.7135 26.6072C18.1868 28.3057 22.2486 30.13 24.2017 28.113C24.6698 27.6299 24.987 26.4756 24.1266 26.2458C23.1952 25.9989 22.99 27.8554 21.1764 27.154ZM33.5318 27.1384C32.637 26.7291 31.5046 25.0029 30.6666 26.8064C30.7605 27.7529 33.1779 29.0224 34.1842 28.9997C35.3287 28.9746 38.3841 27.5753 37.5123 26.3064C36.8349 25.3209 35.3735 27.9798 33.5318 27.1384Z" fill="#FFB79B"/>
</g>
<defs>
<filter id="filter0_g_376_4729" x="6.93374" y="8.6" width="40.7995" height="36.7995" filterUnits="userSpaceOnUse" color-interpolation-filters="sRGB">
<feFlood flood-opacity="0" result="BackgroundImageFix"/>
<feBlend mode="normal" in="SourceGraphic" in2="BackgroundImageFix" result="shape"/>
<feTurbulence type="fractalNoise" baseFrequency="0.25 0.25" numOctaves="3" seed="8475" />
<feDisplacementMap in="shape" scale="0.80000001192092896" xChannelSelector="R" yChannelSelector="G" result="displacedImage" width="100%" height="100%" />
<feMerge result="effect1_texture_376_4729">
<feMergeNode in="displacedImage"/>
</feMerge>
</filter>
</defs>
</svg>
